<?xml version="1.0" encoding="utf-8"?>
<!-- Generator: Adobe Illustrator 27.4.0, SVG Export Plug-In . SVG Version: 6.00 Build 0)  -->
<svg version="1.1" id="Livello_1" xmlns="http://www.w3.org/2000/svg" xmlns:xlink="http://www.w3.org/1999/xlink" x="0px" y="0px"
	 viewBox="0 0 1080 1080" style="enable-background:new 0 0 1080 1080;" xml:space="preserve">
<path d="M299.11,538.11c4-6.94,7.71-13.37,11.47-19.89c-1.22-2.19-2.31-4.21-3.44-6.2c-2.65-4.62-5.17-9.31-8.03-13.8
	c-1.88-2.95-1.73-5.45,0.09-8.34c2.92-4.65,5.55-9.49,8.29-14.26c0.97-1.69,1.91-3.39,2.97-5.28c-0.61-1.23-1.17-2.51-1.85-3.72
	c-3.17-5.54-6.26-11.14-9.62-16.57c-1.73-2.8-1.6-5.13,0.06-7.89c4.04-6.68,7.94-13.44,11.71-20.27c1.47-2.67,3.44-3.77,6.43-3.72
	c6.03,0.1,12.07,0.04,18.1,0.01c1.75-0.01,3.5-0.13,5.38-0.2c1.89-3.2,3.69-6.24,5.47-9.29c2.14-3.68,4.34-7.33,6.37-11.07
	c1.34-2.48,3.2-3.49,6.02-3.43c6.39,0.13,12.78,0.04,19.17,0.04c1.41,0,2.81,0,4.38,0c1.98-3.36,3.87-6.54,5.73-9.74
	c2.05-3.53,4.2-7,6.08-10.62c1.41-2.72,3.47-3.78,6.43-3.74c6.03,0.08,12.07,0.03,18.1,0.01c1.76-0.01,3.51-0.11,5.41-0.18
	c2.04-3.5,3.99-6.86,5.95-10.22c1.96-3.37,4.02-6.7,5.85-10.14c1.34-2.52,3.26-3.43,6.05-3.38c6.03,0.12,12.07,0.03,18.1,0.03
	c1.76,0,3.52,0,5.4,0c1.91-3.24,3.71-6.28,5.48-9.33c2.14-3.68,4.34-7.33,6.36-11.08c1.31-2.44,3.09-3.67,5.92-3.65
	c8.16,0.07,16.33,0.07,24.49,0c2.79-0.03,4.66,1.06,6.03,3.5c3.91,6.96,7.88,13.89,11.97,20.74c1.54,2.58,1.61,4.86,0.05,7.44
	c-3.29,5.47-6.43,11.04-9.6,16.58c-0.7,1.22-1.32,2.48-2.05,3.88c3.39,5.89,6.74,11.73,10.11,17.55c3.72,6.42,3.82,6.03,0.06,12.48
	c-3.39,5.82-6.73,11.66-10.22,17.73c1.22,2.18,2.4,4.34,3.62,6.47c2.56,4.46,5.02,8.99,7.77,13.33c1.84,2.91,1.89,5.45,0.07,8.39
	c-3.17,5.13-6.09,10.41-9.1,15.64c-0.79,1.37-1.49,2.8-2.31,4.34c3.29,5.73,6.51,11.44,9.82,17.09c4.14,7.08,4.13,6.44,0.09,13.4
	c-3.3,5.67-6.54,11.36-9.92,17.24c0.95,1.73,1.84,3.44,2.79,5.11c2.73,4.77,5.31,9.65,8.29,14.26c2.1,3.26,2.2,6.03,0.1,9.32
	c-3.05,4.78-5.74,9.79-8.57,14.71c-0.88,1.53-1.7,3.09-2.62,4.77c3.3,5.76,6.53,11.46,9.83,17.12c4.12,7.06,4.19,6.4,0.11,13.4
	c-3.3,5.67-6.55,11.36-9.9,17.18c0.67,1.3,1.26,2.56,1.95,3.77c2.9,5.08,5.64,10.28,8.83,15.18c2.33,3.58,2.54,6.6,0.11,10.25
	c-3.04,4.57-5.56,9.48-8.3,14.25c-0.88,1.53-1.71,3.09-2.64,4.77c2.58,4.52,5.16,8.96,7.68,13.43c7.12,12.66,7.05,8.39-0.12,21.22
	c-2.42,4.33-4.93,8.61-7.5,13.08c0.73,1.42,1.4,2.85,2.17,4.2c2.9,5.08,5.65,10.27,8.84,15.17c2.27,3.48,2.06,6.37-0.12,9.78
	c-3.24,5.08-6.08,10.41-9.08,15.65c-0.61,1.07-1.17,2.18-1.85,3.48c2.63,4.58,5.28,9.18,7.93,13.79c1.24,2.15,2.39,4.36,3.74,6.44
	c1.67,2.55,1.47,4.88-0.08,7.44c-3.12,5.16-6.07,10.42-9.08,15.65c-0.88,1.53-1.72,3.09-2.68,4.81c0.62,1.24,1.18,2.52,1.87,3.72
	c3.17,5.54,6.27,11.13,9.62,16.57c1.79,2.9,1.93,5.42,0.13,8.39c-3.96,6.52-7.8,13.11-11.43,19.82c-1.67,3.08-3.85,4.19-7.28,4.07
	c-5.85-0.22-11.71-0.06-17.57-0.06c-1.77,0-3.53,0-5.41,0c-0.86,1.27-1.7,2.38-2.4,3.58c-3.13,5.36-6.27,10.72-9.29,16.14
	c-1.36,2.43-3.19,3.54-6.01,3.51c-8.16-0.1-16.33-0.08-24.49-0.01c-2.6,0.02-4.35-0.99-5.62-3.23c-3.05-5.41-6.19-10.77-9.31-16.13
	c-0.88-1.52-1.83-3-2.73-4.47c-0.9-0.13-1.6-0.31-2.29-0.31c-6.73-0.02-13.47-0.01-20.31-0.01c-0.78,1.08-1.59,2.02-2.2,3.06
	c-3.23,5.51-6.56,10.97-9.55,16.61c-1.71,3.22-3.88,4.64-7.59,4.53c-7.27-0.23-14.56-0.23-21.82,0c-3.83,0.12-6.29-1.09-8.11-4.56
	c-2.96-5.65-6.32-11.1-9.53-16.62c-0.53-0.91-1.17-1.76-1.86-2.79c-1.38-0.08-2.78-0.23-4.18-0.23c-6.57-0.03-13.13-0.07-19.7,0.01
	c-2.59,0.03-4.29-0.93-5.57-3.23c-3.99-7.12-8.09-14.18-12.25-21.19c-1.43-2.41-1.44-4.54,0.01-6.94c3.03-5.01,5.9-10.11,8.81-15.19
	c0.97-1.68,1.89-3.39,2.99-5.38c-1.47-2.57-2.96-5.17-4.45-7.76c-2.39-4.15-4.7-8.35-7.22-12.42c-1.58-2.56-1.62-4.81-0.03-7.41
	c3.32-5.45,6.43-11.03,9.61-16.57c0.7-1.22,1.31-2.49,2.05-3.92c-3.74-6.47-7.46-12.91-11.28-19.52c-1.63-0.07-3.2-0.2-4.78-0.21
	c-6.03-0.02-12.07-0.14-18.1,0.04c-3.39,0.1-5.65-1.02-7.33-4.08c-3.75-6.84-7.69-13.59-11.7-20.28c-1.55-2.59-1.6-4.81-0.03-7.42
	c3.93-6.53,7.66-13.18,11.57-19.95c-0.5-1.11-0.91-2.27-1.51-3.32c-3.25-5.7-6.45-11.44-9.89-17.03c-1.69-2.76-1.79-5.1-0.07-7.89
	c3.26-5.28,6.26-10.72,9.35-16.11c0.7-1.22,1.35-2.47,2.13-3.89c-0.64-1.25-1.23-2.51-1.92-3.72c-3.08-5.39-6.06-10.84-9.34-16.11
	c-1.81-2.91-1.96-5.38-0.1-8.35c3.2-5.11,6.09-10.41,9.09-15.64c0.79-1.37,1.49-2.78,2.29-4.28c-0.89-1.64-1.69-3.21-2.57-4.73
	c-3-5.23-5.97-10.49-9.08-15.65c-1.44-2.38-1.59-4.49-0.13-6.94c4.18-7.01,8.24-14.09,12.25-21.19c1.37-2.43,3.18-3.53,6.02-3.47
	c6.03,0.14,12.07,0.04,18.1,0.04C295.29,538.11,297.05,538.11,299.11,538.11z M484.32,618.15c-2.94,3.63-10.13,16.12-11.76,20.43
	c1.79,3.13,3.56,6.41,5.51,9.58c2.03,3.29,3.44,7,6.3,9.95c6.73,0,13.47,0.01,20.2-0.01c0.69,0,1.39-0.19,2.31-0.32
	c3.93-6.43,7.65-13.05,11.47-19.75c-3.97-6.77-7.57-13.45-11.6-19.87C499.05,618.15,491.63,618.15,484.32,618.15z M483.78,714.07
	c-3.91,6.61-7.72,13.17-11.3,19.63c3.12,6.89,9.54,17.6,12.21,20.35c3.58,0,7.3,0.06,11.03-0.02c3.7-0.07,7.42,0.36,10.95-0.32
	c3.85-5.53,9.9-16.29,11.39-20.27c-3.77-6.36-7.28-13.08-11.39-19.37C499.04,714.07,491.78,714.07,483.78,714.07z M465.53,450.69
	c-2.93-0.47-19.01-0.8-21.57-0.54c-1.14,0.11-2.02,0.55-2.6,1.55c-3.54,6.12-7.07,12.24-10.65,18.43
	c3.88,6.78,7.55,13.41,11.42,19.62c5.97,0.56,19.15,0.48,23.15-0.1c4.31-6.46,9.69-16.09,11.16-20.09
	C472.82,463.3,469.11,456.89,465.53,450.69z M317.88,426.34c-4.27,5.86-10.46,16.96-11.46,20.55c3.14,5.46,6.38,10.96,9.48,16.53
	c1.06,1.91,2.37,2.82,4.64,2.77c6.03-0.13,12.06-0.04,18.09-0.08c0.68,0,1.36-0.27,1.87-0.38c4.32-6.26,9.96-16.35,11.29-20.21
	c-3.64-6.29-7.37-12.71-11.12-19.19C333.03,426.34,325.6,426.34,317.88,426.34z M393.55,422.4c-4.54-9.04-9.4-17.1-12.24-20.27
	c-6.48,0-13.2,0.01-19.93-0.01c-1.32,0-2.43,0.32-3.14,1.55c-3.53,6.12-7.08,12.24-10.64,18.41c3.87,6.82,7.57,13.43,11.42,19.65
	c5.93,0.57,19.12,0.5,23.45-0.12C386.09,435.34,389.8,428.91,393.55,422.4z M317.43,474.32c-3.88,6.73-7.59,13.15-11.43,19.82
	c3.83,6.61,7.62,13.17,11.25,19.46c5.11,0.67,18.92,0.65,23.63-0.02c3.69-6.31,7.57-12.82,11.21-19.53
	c-3.96-6.75-7.54-13.42-11.53-19.73C332.75,474.32,325.33,474.32,317.43,474.32z M317.46,522.3c-3.79,6.54-7.59,13.1-11.27,19.43
	c3.67,7.74,9.64,17.69,12.29,20.46c3.58,0,7.31,0.07,11.03-0.02c3.69-0.09,7.41,0.45,10.91-0.38c3.82-5.5,9.91-16.28,11.41-20.22
	c-3.64-6.31-7.36-12.75-11.13-19.28C332.96,522.3,325.38,522.3,317.46,522.3z M400.67,466.14c7.27,0,14.16-0.01,21.05,0.01
	c1.65,0,2.56-0.95,3.31-2.25c2.82-4.92,5.67-9.81,8.47-14.74c0.6-1.05,1.03-2.19,1.55-3.33c-3.8-6.56-7.52-12.98-11.26-19.44
	c-7.78,0-15.35,0-23.22,0c-3.81,6.58-7.6,13.13-11.43,19.76C392.98,452.81,396.68,459.23,400.67,466.14z M506.42,466.09
	c3.44-4.76,10.13-16.49,11.56-20.17c-3.47-7.06-8.96-16.26-11.63-19.5c-8.39-0.57-18.95-0.4-22.98,0.44
	c-3.61,6.27-7.31,12.7-11.08,19.24c3.73,6.78,7.55,13.32,11.53,20.05C491.44,466.15,498.85,466.24,506.42,466.09z M306.01,781.93
	c2.09,3.66,3.88,6.93,5.81,10.11c2.01,3.31,3.54,6.93,6.1,9.83c7.59,0,15.02,0,22.74,0c3.8-6.59,7.58-13.16,11.25-19.52
	c-2.32-5.21-9.03-16.73-11.62-20.03c-5.45-0.63-18.88-0.53-23.07,0.24C313.61,768.79,309.89,775.22,306.01,781.93z M435.19,494.03
	c-3.93-6.79-7.65-13.21-11.38-19.65c-7.79,0-15.36,0-23.23,0c-3.81,6.57-7.6,13.11-11.43,19.74c3.58,6.21,7.05,12.16,10.46,18.15
	c0.82,1.43,2.01,1.83,3.53,1.82c5.67-0.02,11.33,0.02,17-0.01c1.21-0.01,2.41-0.23,3.8-0.37c2.78-4.8,5.53-9.54,8.26-14.28
	C433.14,497.75,434.06,496.05,435.19,494.03z M506.55,513.91c4.01-5.63,10.08-16.39,11.5-20.36c-3.63-6.29-7.35-12.72-11.09-19.19
	c-7.77,0-15.35,0-23.21,0c-3.93,6.5-7.7,13.06-11.45,19.79c3.83,6.72,7.49,13.35,11.47,19.76
	C491.53,513.91,498.94,513.91,506.55,513.91z M506.92,762.11c-7.87,0-15.29,0-22.59,0c-2.89,3.48-10.22,16.21-11.76,20.39
	c1.8,3.14,3.59,6.42,5.53,9.59c2.02,3.3,3.46,6.99,6.09,9.78c7.61,0,15.05,0,22.7,0c3.82-6.62,7.61-13.2,11.48-19.91
	C514.53,775.31,510.82,768.88,506.92,762.11z M352.14,829.91c-3.99-6.87-7.72-13.3-11.32-19.5c-2.77-0.38-19.63-0.67-21.62-0.48
	c-1.16,0.11-2,0.63-2.57,1.62c-3.54,6.12-7.07,12.25-10.61,18.38c3.94,6.85,7.6,13.5,11.49,19.71c7.02,0.64,19.35,0.49,23.42-0.27
	C344.55,843.09,348.26,836.65,352.14,829.91z M506.8,562.18c3.9-6.77,7.69-13.34,11.58-20.08c-3.9-6.76-7.69-13.32-11.55-20.01
	c-7.85,0.05-15.43-0.14-23.09,0.14c-3.94,6.82-7.92,13.27-11.37,20.03c1.97,3.45,3.74,6.72,5.68,9.89c2.02,3.3,3.48,6.97,6.29,10.01
	C491.73,562.22,499.15,562.21,506.8,562.18z M472.42,686.33c1.97,3.43,3.74,6.7,5.7,9.86c2.03,3.28,3.39,7.01,6.28,9.86
	c3.77,0,7.49,0.01,11.21,0c3.7-0.01,7.4-0.04,11.19-0.07c3.99-6.78,7.84-13.31,11.51-20.04c-3.97-6.77-7.54-13.45-11.59-19.76
	c-7.77,0-15.19,0-22.46,0C481.62,669.49,475.21,680.39,472.42,686.33z M484.33,609.96c7.29,0,14.71,0,21.98,0
	c3.19-3.97,10.43-16.68,11.7-20.55c-3.65-6.29-7.37-12.72-10.99-18.96c-5.32-0.59-18.84-0.53-23.09,0.06
	c-2.91,3.97-9.57,15.57-11.31,19.72C475.57,596.41,481.72,606.8,484.33,609.96z M442.07,441.9c8.06,0,15.63,0,23.06,0
	c4.35-6.48,9.8-16.22,11.33-20.3c-3.62-6.25-7.33-12.66-10.9-18.84c-4.56-0.72-18.17-0.76-23.57-0.07
	c-3.72,6.25-7.51,12.8-11.25,19.57C434.51,428.79,438.21,435.21,442.07,441.9z M476.79,374.2c-4.07-6.92-7.63-13.62-11.78-20.05
	c-7.71-0.06-15.12-0.21-22.32,0.09c-2.75,3.55-9.4,14.97-11.81,20.23c3.66,6.41,7.36,13.03,11.35,19.5c7.85,0,15.43,0,23.13,0
	C469.14,387.43,472.86,380.99,476.79,374.2z M382.24,489.91c3.87-6.62,7.75-13.12,11.24-19.54c-3.41-7.1-9.23-16.9-11.91-20.05
	c-7.29,0-14.69,0-22.42,0c-3.96,6.46-7.65,13.07-11.53,19.89c3.82,6.6,7.62,13.15,11.42,19.7
	C366.93,489.91,374.51,489.91,382.24,489.91z M400.62,666.19c-3.95,6.81-7.87,13.29-11.4,19.92c2.01,3.52,3.77,6.8,5.72,9.96
	c2.03,3.29,3.45,6.97,6.28,9.93c7.42,0.07,14.83,0.07,22.37,0.01c4.07-6.69,7.81-13.27,11.6-20.02
	c-3.88-6.74-7.55-13.36-11.55-19.81C415.97,666.19,408.56,666.19,400.62,666.19z M423.75,801.9c3.87-6.96,7.95-13.37,11.4-20.1
	c-3.9-6.73-7.62-13.15-11.23-19.36c-4.91-0.69-18.75-0.67-23.53,0.05c-3.65,6.32-7.44,12.89-11.22,19.44
	c3.89,6.91,7.66,13.49,11.54,19.96C408.49,801.9,415.91,801.9,423.75,801.9z M435.24,542.1c-3.97-6.87-7.69-13.3-11.56-20
	c-7.65,0.02-15.23-0.1-23.02,0.1c-3.88,6.7-7.68,13.26-11.5,19.86c2.08,3.64,3.93,7.07,5.97,10.37c2.02,3.28,3.32,7.05,6.32,9.77
	c3.78,0,7.51,0.07,11.22-0.02c3.68-0.09,7.4,0.48,11.26-0.5C427.64,555.27,431.35,548.84,435.24,542.1z M340.26,657.97
	c3.82-5.45,10.03-16.41,11.56-20.39c-1.77-3.11-3.57-6.36-5.46-9.56c-1.97-3.33-3.71-6.81-6.05-10.03c-3.91,0-7.63,0-11.34,0
	c-3.7,0-7.4,0-11.23,0c-4.1,6.71-7.82,13.31-11.47,19.74c3.11,6.83,9.5,17.54,12.04,20.24
	C325.56,657.97,332.82,657.97,340.26,657.97z M340.54,753.92c4.04-6.73,7.86-13.28,11.55-20.01c-3.98-6.76-7.54-13.45-11.6-19.78
	c-7.76,0-15.16,0-22.42,0c-3.15,4-10.29,16.49-11.71,20.46c1.8,3.15,3.58,6.42,5.53,9.59c2.02,3.29,3.42,6.99,6.19,9.74
	C325.48,753.92,332.74,753.92,340.54,753.92z M340.69,666.18c-7.92,0-15.33,0-22.59,0c-3.09,3.85-10.26,16.34-11.71,20.39
	c1.81,3.15,3.57,6.43,5.53,9.59c2.03,3.28,3.4,7,6.3,9.88c3.74,0,7.45,0.01,11.17,0c3.7-0.02,7.4-0.06,11.2-0.1
	c3.97-6.74,7.8-13.28,11.51-19.98C348.26,679.31,344.55,672.88,340.69,666.18z M435.25,829.92c-4.03-6.94-7.76-13.35-11.35-19.53
	c-5.35-0.7-19.09-0.63-23.52,0.12c-3.67,6.34-7.56,12.84-11.17,19.47c2,3.5,3.77,6.77,5.7,9.94c2.01,3.31,3.55,6.92,6.12,9.89
	c7.54,0,14.96,0,22.73,0C427.52,843.29,431.31,836.73,435.25,829.92z M306.16,589.86c4.73,9.38,9.3,16.99,12.2,20.27
	c6.51,0,13.24,0.01,19.96-0.01c0.69,0,1.38-0.19,2.45-0.34c3.72-6.45,7.5-13.01,11.16-19.35c-2.42-5.28-9.06-16.65-11.65-20.03
	c-6.22-0.61-18.88-0.48-23.03,0.29C313.64,576.92,309.93,583.35,306.16,589.86z M389.28,637.8c3.69,7.48,9.45,17.15,12.11,20.29
	c7.19,0.04,14.6,0.06,22.21-0.02c3.98-6.69,7.81-13.24,11.59-20.08c-3.85-6.67-7.64-13.24-11.29-19.58
	c-5.83-0.65-19.22-0.56-23.49,0.18C396.79,624.82,393.07,631.25,389.28,637.8z M435.21,733.98c-3.86-6.69-7.65-13.26-11.29-19.57
	c-5.61-0.7-19.21-0.61-23.53,0.15c-3.67,6.35-7.59,12.84-11.16,19.51c1.99,3.48,3.76,6.74,5.69,9.92c2.01,3.31,3.52,6.94,6.13,9.88
	c7.53,0,14.95,0,22.63,0C427.62,747.36,431.34,740.76,435.21,733.98z M423.86,609.78c3.72-6.45,7.51-13.02,11.35-19.68
	c-3.89-6.82-7.62-13.41-11.41-19.68c-6.71-0.63-19.32-0.5-23.44,0.26c-3.69,6.38-7.6,12.86-11.14,19.49
	c2.02,3.54,3.79,6.82,5.74,9.98c2.02,3.29,3.45,6.98,6.3,9.99c6.7,0,13.43,0.01,20.16-0.01
	C422.11,610.11,422.8,609.93,423.86,609.78z M506.32,850.78c3.11-3.98,10.32-16.59,11.73-20.52c-3.78-6.38-7.32-13.08-11.45-19.49
	c-6.65,0-13.02-0.01-19.38,0.01c-1.04,0-2.09,0.09-3.43,0.16c-3.89,6.46-7.75,12.93-11.27,19.63c4.14,6.93,7.74,13.8,11.88,20.21
	C492,850.78,499.23,850.78,506.32,850.78z M483.63,330.41c-3.83,6.64-7.62,13.2-11.27,19.52c3.73,7.6,9.32,16.96,11.85,19.9
	c7.01,0.52,18.87,0.37,23.03-0.33c3.62-6.27,7.32-12.69,11.13-19.29c-3.88-6.72-7.67-13.27-11.45-19.81
	C499.18,330.41,491.76,330.41,483.63,330.41z M299.18,633.83c3.87-6.72,7.58-13.15,11.36-19.72c-3.77-6.74-7.51-13.31-11.32-19.56
	c-5.57-0.59-18.92-0.53-23.57,0.11c-3.65,6.33-7.42,12.88-11.17,19.39c2.02,3.54,3.81,6.8,5.72,9.98c1.98,3.31,3.6,6.86,5.95,9.8
	C283.89,633.83,291.32,633.83,299.18,633.83z M275.64,546.67c-3.79,6.58-7.48,13.01-11.17,19.42c3.96,6.85,7.58,13.51,11.47,19.68
	c7.53,0.55,19.32,0.41,23.44-0.27c3.65-6.32,7.36-12.75,11.21-19.4c-3.84-6.64-7.63-13.19-11.27-19.5
	C294.01,545.94,280.39,545.98,275.64,546.67z M264.44,710.01c3.97,6.86,7.68,13.27,11.28,19.47c5.97,0.81,19.75,0.68,23.76-0.21
	c3.64-6.31,7.34-12.74,11.1-19.26c-3.92-6.74-7.5-13.42-11.48-19.58c-6.49-0.55-19.18-0.44-23.47,0.21
	C272.02,696.9,268.31,703.32,264.44,710.01z M359,834.17c-3.85,6.68-7.63,13.23-11.28,19.56c3.71,7.57,9.34,17,11.85,19.92
	c7,0.57,18.93,0.41,22.98-0.36c3.63-6.29,7.34-12.71,11.14-19.31c-3.87-6.71-7.66-13.27-11.43-19.81
	C374.52,834.17,367.1,834.17,359,834.17z M264.61,661.79c2.84,5.92,9.21,16.71,11.76,19.95c7.51,0,15.1,0,22.54,0
	c4.04-5.92,9.86-16.29,11.36-20.25c-3.63-6.27-7.34-12.69-10.94-18.91c-5.64-0.78-19.78-0.66-23.77,0.18
	C271.93,649.08,268.23,655.51,264.61,661.79z M423.84,417.92c3.87-6.7,7.58-13.12,11.39-19.72c-3.88-6.71-7.66-13.27-11.55-20
	c-7.76-0.01-15.34-0.07-23.07,0.05c-3.91,6.76-7.7,13.31-11.35,19.63c3.53,7.28,9.27,16.92,11.92,20.05
	C408.51,417.92,415.93,417.92,423.84,417.92z M393.69,805.95c-3.93-6.8-7.65-13.21-11.26-19.47c-5.76-0.72-19.72-0.6-23.72,0.21
	c-3.63,6.3-7.33,12.72-11.07,19.23c3.82,6.74,7.54,13.34,11.32,19.58c5.62,0.6,19.14,0.53,23.52-0.12
	C386.07,819.15,389.78,812.73,393.69,805.95z M381.95,681.75c3.4-4.85,9.85-16.2,11.45-20.2c-3.61-6.27-7.32-12.69-10.92-18.94
	c-5.17-0.79-19.56-0.71-23.75,0.13c-3.62,6.27-7.32,12.7-11.14,19.32c3.84,6.62,7.63,13.17,11.41,19.68
	C366.93,681.75,374.51,681.75,381.95,681.75z M430.68,758c3.92,6.59,7.41,13.31,11.58,19.67c7.77,0,15.34,0,23.09,0
	c3.91-6.57,7.7-13.11,11.39-19.76c-3.86-6.67-7.57-13.09-11.19-19.35c-5.44-0.69-19.56-0.59-23.74,0.17
	C438.19,744.99,434.49,751.41,430.68,758z M518.38,398.17c-3.99-6.89-7.7-13.31-11.46-19.8c-7.74,0-15.32,0-23.05,0
	c-0.71,1.1-1.41,2.1-2.02,3.16c-3.19,5.5-6.35,11.02-9.42,16.36c2.76,5.93,9.16,16.79,11.68,19.87c5.58,0.54,18.78,0.45,23.11-0.23
	C510.81,411.31,514.51,404.89,518.38,398.17z M358.9,498.74c-3.87,6.28-7.59,12.86-11.26,19.41c2.02,3.53,3.81,6.79,5.73,9.97
	c2,3.31,3.53,6.92,6,9.74c8.2,0.57,19.07,0.4,23.15-0.36c3.63-6.31,7.34-12.74,11.14-19.34c-3.77-6.71-7.49-13.29-11.32-19.51
	C376.83,498,363.38,498.06,358.9,498.74z M465.31,690.13c-7.93,0.03-15.5-0.17-22.83,0.13c-3.67,5.23-9.91,16.22-11.42,20.04
	c4.35,8.61,9.08,16.47,11.7,19.43c8.73,0.55,18.84,0.37,22.9-0.44c3.63-6.29,7.33-12.72,11.11-19.26
	C472.97,703.43,469.27,697.01,465.31,690.13z M382.29,777.72c3.87-6.7,7.58-13.12,11.4-19.72c-3.85-6.67-7.63-13.21-11.46-19.84
	c-7.86-0.03-15.43-0.15-23.22,0.08c-3.84,6.66-7.61,13.21-11.26,19.53c3.78,7.63,9.36,16.98,11.91,19.95
	C367,777.72,374.41,777.72,382.29,777.72z M465.38,681.75c3.82-6.63,7.73-13.11,11.35-19.79c-3.87-6.69-7.58-13.11-11.19-19.36
	c-5.31-0.79-19.63-0.69-23.74,0.16c-3.62,6.28-7.32,12.7-11.1,19.26c3.82,6.69,7.53,13.29,11.43,19.72
	C450.05,681.75,457.63,681.75,465.38,681.75z M442.1,537.89c8.03,0,15.6,0,23.22,0c1.96-3.35,3.86-6.54,5.69-9.77
	c1.9-3.36,4.03-6.6,5.68-10.16c-3.83-6.64-7.54-13.05-11.11-19.24c-5.67-0.82-19.81-0.7-23.82,0.2c-3.62,6.28-7.31,12.71-11.05,19.2
	C434.52,524.74,438.22,531.17,442.1,537.89z M382.22,585.86c2-3.43,4.06-6.72,5.89-10.14c1.81-3.38,4.39-6.38,5.28-10.17
	c-3.74-6.45-7.37-12.71-10.91-18.82c-5.05-0.76-19.47-0.69-23.77,0.11c-3.61,6.25-7.31,12.67-11.11,19.27
	c3.85,6.66,7.63,13.21,11.41,19.75C366.92,585.86,374.5,585.86,382.22,585.86z M465.32,633.83c1.98-3.39,3.89-6.57,5.72-9.8
	c1.9-3.36,4.03-6.6,5.66-10.13c-3.85-6.66-7.55-13.07-11.13-19.27c-5.93-0.78-19.83-0.64-23.79,0.23
	c-3.62,6.29-7.32,12.72-11.05,19.2c3.85,6.76,7.55,13.36,11.48,19.78C449.96,633.83,457.37,633.83,465.32,633.83z M441.93,546.6
	c-3.76,6.52-7.45,12.95-11.22,19.48c3.82,6.73,7.55,13.32,11.47,19.77c7.88,0,15.45,0,23.14,0c3.88-6.63,7.76-13.12,11.39-19.81
	c-3.13-5.47-6.11-10.68-9.12-15.88c-0.7-1.22-1.5-2.38-2.2-3.47C461.22,546.08,447.81,546.01,441.93,546.6z M442.07,825.7
	c7.93,0,15.51,0,23.35,0c3.78-6.6,7.7-13.08,11.32-19.79c-3.97-6.75-7.48-13.46-11.54-19.58c-7.66-0.58-19.24-0.42-23.38,0.32
	c-3.62,6.26-7.32,12.69-11.13,19.29C434.44,812.44,438.14,818.87,442.07,825.7z M347.61,709.96c2.02,3.53,3.81,6.78,5.71,9.97
	c1.98,3.31,3.58,6.87,5.93,9.73c7.26,0.55,19.14,0.4,23.25-0.29c3.64-6.3,7.34-12.72,11.18-19.37c-3.83-6.63-7.61-13.18-11.37-19.68
	c-7.93,0-15.5,0-23.35,0C355.24,696.78,351.53,703.19,347.61,709.96z M382.29,633.82c3.9-6.76,7.6-13.18,11.36-19.71
	c-3.8-6.77-7.51-13.36-11.36-19.57c-5.82-0.6-19.02-0.52-23.45,0.15c-3.76,6.32-7.56,12.85-11.18,19.42
	c2.01,3.53,3.78,6.79,5.72,9.96c2.01,3.29,3.46,6.94,6.07,9.75C367.06,633.82,374.48,633.82,382.29,633.82z M464.81,834.01
	c-4.31,0-8.04-0.07-11.75,0.02c-3.68,0.09-7.41-0.45-11.15,0.45c-3.74,6.49-7.45,12.93-11.21,19.45
	c3.81,6.77,7.53,13.37,11.33,19.59c5.77,0.63,19.24,0.54,23.53-0.14c3.67-6.21,7.42-12.6,10.97-19.09
	C472.57,847.43,468.77,840.85,464.81,834.01z"/>
<path d="M565.83,787.82c-0.97-1.68-1.95-3.36-2.92-5.04c-6.17-10.68-10.66-21.98-13.05-34.12c-2.72-13.8-2.38-27.53,0.58-41.21
	c0.66-3.04,0.64-5.93,0.14-8.94c-1.2-7.22-1.38-14.5-0.48-21.75c1.22-9.79,5.17-18.38,12.07-25.52c1.1-1.14,2.21-2.27,3.5-3.6
	c-0.48-1.15-0.93-2.27-1.41-3.38c-3.02-6.96-4.39-14.23-3.92-21.79c0.17-2.73-0.32-5.19-1.35-7.72
	c-6.01-14.79-5.48-29.41,1.39-43.82c0.76-1.59,1.51-3.19,2.31-4.88c-0.88-1.77-1.73-3.52-2.59-5.26c-5.47-11-9.78-22.42-12.22-34.5
	c-3.73-18.47-2.47-36.68,2.63-54.74c2.74-9.69,3.54-7.9,2.93-19.19c-0.68-12.63,3.93-24.01,11.31-34.22
	c1.65-2.28,3.34-4.52,5.08-6.87c-0.68-1.07-1.2-1.98-1.8-2.83c-7.3-10.52-8.96-22.2-6.93-34.56c0.57-3.49,2.23-6.86,2.37-10.33
	c0.15-3.45-1.24-6.95-1.48-10.45c-0.2-2.97,0.01-6.03,0.5-8.97c0.95-5.75,4.18-10.19,9.09-13.18c6.43-3.92,13.42-6.43,20.97-7.11
	c8.13-0.74,15.47,1.46,22,6.28c2.43,1.8,4.87,3.44,7.72,4.59c4.43,1.79,7.69,5,9.8,9.33c0.54,1.1,1.06,2.21,1.69,3.53
	c1.29-0.22,2.5-0.29,3.63-0.63c7.02-2.14,13.98-1.89,20.97,0.17c2.2,0.65,4.48,1.02,6.73,1.51c1.73,0.38,3.49,0.69,5.2,1.15
	c12.9,3.49,21.8,11.43,26.57,23.94c0.32,0.83,0.61,1.66,0.9,2.5c0.28,0.83,0.53,1.68,0.87,2.76c1.25,0.46,2.53,1.02,3.86,1.4
	c6,1.73,11.71,4.12,16.96,7.52c8.94,5.77,15.46,13.48,18.79,23.7c0.22,0.67,0.46,1.33,0.75,2.17c1.53,0.73,3.11,1.49,4.7,2.25
	c6.45,3.08,12.41,6.86,17.52,11.91c6.1,6.02,10.23,13.17,12.09,21.5c0.64,2.87,1.78,5.3,3.35,7.69c4.91,7.49,7.66,15.65,6.53,24.68
	c-0.5,4-1.79,7.91-2.82,12.29c0.78,0.59,1.83,1.5,2.98,2.26c5.79,3.82,11.29,8.01,16.18,12.96c7.62,7.71,13.26,16.62,16.01,27.19
	c2.48,9.54,2.32,19.03-1.49,28.18c-1.54,3.72-3.94,7.08-6.15,10.97c0.71,1.37,1.59,3.09,2.5,4.79c3.74,7.07,6.97,14.34,9.23,22.04
	c4.11,14.05,3.87,28.03-0.58,41.92c-1.15,3.58-1.91,7.1-1.91,10.9c0,2.98-0.53,6.02-1.29,8.91c-1.63,6.22-5.23,11.2-10.46,14.97
	c-1.43,1.03-2.93,1.98-4.7,3.17c0.45,1.08,0.85,2.17,1.35,3.23c2.34,4.97,4.93,9.84,7.01,14.91c5.28,12.9,5.93,26.15,2.54,39.66
	c-0.6,2.38-0.8,4.87-1.07,7.33c-0.41,3.7-0.47,7.46-1.14,11.11c-2.05,11.24-7.67,20.49-16.16,28.05c-1.45,1.29-2.91,2.57-4.3,3.79
	c-0.28,3.35-0.36,6.55-0.85,9.68c-1.67,10.68-6.61,19.78-13.97,27.58c-2.31,2.45-4.81,4.73-7.39,6.89c-1.68,1.41-2.9,3-3.82,4.98
	c-5.21,11.29-13.78,19.18-24.97,24.37c-4.85,2.25-9.9,3.93-15.1,5.06c-2.51,0.55-4.64,1.54-6.71,3
	c-7.74,5.48-16.14,9.63-25.33,12.07c-13.37,3.55-26.74,3.22-39.9-0.85c-4.46-1.38-8.47-1.5-12.85,0.14
	c-5.33,2-10.94,2.92-16.64,3.33c-10.85,0.78-20.79-1.74-29.69-8.01c-2.35-1.66-4.8-2.82-7.59-3.6
	c-15.54-4.37-23.42-14.19-24.36-30.32c-0.16-2.7-0.66-5.22-1.58-7.75c-4.66-12.81-4-25.43,1.73-37.76
	C561.69,795.39,563.8,791.7,565.83,787.82z M599.69,856.82c-2.3-0.19-4.61-0.31-6.89-0.6c-2.28-0.29-4.58-0.63-6.81-1.18
	c-2.4-0.6-4.74-1.45-7.1-2.22c-2.11-0.7-4.01-2.02-6.89-2.76c0.55,1.42,0.73,2.24,1.15,2.91c3.42,5.53,8.39,9.14,14.55,10.95
	c14.28,4.19,26.99,1.08,38.05-8.77c2.38-2.12,4.48-4.55,6.74-6.8c0.56-0.56,1.23-0.99,1.85-1.48c-1.24,3.66-3.34,6.66-5.3,9.73
	c-4.53,7.1-10.54,12.38-18.65,15.08c-0.71,0.24-1.3,0.82-2.41,1.55c10.08,2.31,19.39,2.23,28.13-2.28
	c11.15-5.76,19.56-14.57,26.17-25.12c2.51-4,3.47-8.54,2.89-13.28c-1.14-9.4-6.76-16.97-18.75-15.98
	c-13.81,1.15-24.62,7.5-30.25,20.9c-0.48,1.14-0.93,2.31-1.5,3.41c-0.29,0.55-0.81,0.98-1.81,2.14c0.75-4.69,1.33-8.53,1.99-12.36
	c1.33-7.7,4.96-13.96,11.62-18.31c0.82-0.53,1.44-1.36,2.19-2.08c-1.82-1.78-3.82-2.41-5.91-2.95c-5-1.29-9.91-0.5-14.73,0.74
	c-4.28,1.1-8.45,2.65-12.66,4.03c-1.33,0.44-2.6,1.22-4.06,0.49l0.14,0.13c6.19-5.09,12.96-9.25,20.32-12.41
	c1.62-0.7,3.35-1.17,5.06-1.62c7.63-2,14.78-0.95,21.35,3.49c1.9,1.28,3.56,3.26,5.63,3.88c2.28,0.68,4.91,0.12,7.39,0.17
	c5.05,0.1,9.9,1.19,14.25,3.77c2.41,1.43,4.5,3.39,6.89,5.24c3.01-0.58,5.03-2.84,6.88-5.22c1.41-1.82,2.63-3.79,3.91-5.7
	c2.9-4.32,6.91-6.49,12.15-6.34c1.77,0.05,3.55,0.03,5.33,0.03c6.57,0,13.12-0.17,19.65-1.13c9-1.33,17.08-4.62,23.93-10.71
	c1.18-1.05,2.39-2.07,3.63-3.13c1.15,0.25,2.19,0.44,3.2,0.69c5.74,1.41,11.55,1.87,17.44,1.46c4.66-0.32,9.12-1.49,13.24-3.67
	c10.74-5.69,15.61-15.07,16.45-26.82c0.24-3.35-0.48-6.83,0.12-10.08c0.64-3.43,2.49-6.62,3.55-9.99c1.99-6.31,3.01-12.71,2.02-19.4
	c-1.22-8.34-5-15.43-9.82-22.14c-1.56-2.17-3.39-3.34-6.1-3.66c-8.52-1.02-16.57-3.66-24.14-7.68c-4.07-2.16-8.04-4.51-12-6.87
	c-1.55-0.93-3.08-1.53-4.93-1.69c-5.3-0.44-10.58-1.13-15.88-1.65c-6.71-0.66-13.42-1.28-20.18-0.42
	c-6.76,0.86-12.13,3.76-15.66,9.72c-0.27,0.46-0.59,0.89-0.86,1.35c-2.61,4.42-5.22,8.85-8.01,13.58c2.07,7.2,2.61,14.77,2.12,22.43
	c-0.5,7.81-2.73,15.27-4.9,23.09c5.34,1.59,10.47,2.93,15.7,3.74c3.84,0.59,7.75,1.01,11.63,0.96c9.21-0.13,13.97-5.39,15.86-13.03
	c0.72-2.9,0.95-5.94,1.15-8.94c0.2-3.18,0.01-6.39,0.14-9.58c0.31-7.23,3.74-12.45,10.34-15.48c2.25-1.03,4.6-1.87,6.94-2.67
	c2.68-0.92,5.4-1.73,8.13-2.53c3.3-0.97,6.2-2.57,8.68-4.98c1.21-1.17,2.6-2.17,3.98-3.3c0.2,0.5,0.36,0.7,0.31,0.8
	c-3.18,6.77-7.64,12.33-14.63,15.52c-1.29,0.59-2.56,1.23-3.79,1.94c-1.53,0.9-3.08,1.78-4.47,2.87c-3.59,2.81-5.51,6.48-4.97,11.13
	c0.37,3.16,0.98,6.29,1.46,9.33c4.09,2.29,7.88,4.58,11.82,6.59c4.22,2.15,8.7,3,13.42,1.77c2.75-0.72,5.5-1.4,8.26-2.05
	c8.27-1.94,14.62,1.57,20.25,7.17c-1.78-0.07-3.48-0.44-5.17-0.85c-4.61-1.11-9.15-0.97-13.6,0.74c-1.99,0.76-4,1.47-5.97,2.25
	c-5.09,2.03-10.33,2.32-15.7,1.53c-3.89-0.57-7.61-1.67-11.25-3.12c-1.11-0.44-2.31-0.66-3.57-1.01c-1.24,2-2.29,3.83-3.48,5.58
	c-7.38,10.79-17.6,15.5-30.61,14.31c-7.56-0.69-14.51-3.19-21.15-6.72c-1.54-0.82-3.09-1.62-4.75-2.49
	c-1.42,1.38-2.68,2.6-3.94,3.83c-5.82,5.7-12.6,9.84-20.47,11.95c-4.44,1.19-9,2.01-13.56,2.62c-5.09,0.69-10.23,0.95-14.2,1.3
	c-3.58,3.26-6.58,5.77-9.33,8.54c-8.97,8.99-19.52,15.26-31.69,18.84c-2.55,0.75-5.1,1.54-7.69,2.14c-5.52,1.27-8.98,4.8-10.94,9.91
	c-1.28,3.35-1.73,6.86-1.27,10.46c1.01,7.83,4.38,14.55,9.63,20.37c4.71,5.22,10.38,9.11,16.88,11.79c2.3,0.95,4.58,1.91,6.88,2.86
	c0.74,0.31,1.13,0.77,0.89,1.6L599.69,856.82z M600.08,463.62c0,0-0.13-0.13-0.13-0.13c-0.54,3.24-1.07,6.49-1.62,9.78
	c0.52-0.04,0.91,0.04,1.17-0.11c5.45-3.22,11.43-4.72,17.61-5.68c2.97-0.46,5.91-1.17,8.84-1.87c4.75-1.14,8.96-3.36,12.55-6.68
	c2.35-2.17,4.62-4.41,6.93-6.62c2.02-1.92,4.05-3.82,6.7-6.32c-0.22,3.11-1.71,4.72-2.61,6.54c-0.94,1.91-1.94,3.79-3.02,5.62
	c-0.99,1.68-2,3.37-3.21,4.89c-1.32,1.66-2.87,3.13-4.34,4.67c-1.39,1.46-3.48,2.2-4.7,4.05c0.69,0.5,1.08,0.89,1.54,1.09
	c5.54,2.38,11.02,4.91,16.66,7.05c4.46,1.69,9.08,3.01,13.68,4.3c4.41,1.24,8.79,0.82,13.04-0.89c3.13-1.26,6.24-2.56,9.38-3.77
	c4.79-1.86,9.73-1.97,14.66-0.75c2.74,0.68,5.42,1.67,8.07,2.68c3.31,1.26,6.55,2.73,9.85,4.04c4.49,1.78,9.12,2.9,14.01,2.61
	c0.93-0.05,2.06-0.52,2.98,0.72c-3.19,2.47-6.72,3.74-10.72,3.72c-3.24-0.01-6.33-0.76-9.32-1.96c-3.46-1.38-6.9-2.82-10.35-4.21
	c-6.92-2.8-13.79-2.91-20.66,0.25c-2.74,1.26-5.58,2.29-8.34,3.49c-6.99,3.02-14.12,3.18-21.34,1.03c-2.72-0.81-5.4-1.75-8.05-2.76
	c-6.46-2.48-12.87-5.06-19.33-7.54c-2.65-1.01-5.35-1.86-8.05-2.75c-8.63-2.85-20.04,2.07-23.21,12.58
	c-0.45,1.5-1.31,2.97-0.78,3.91c5.67,3.59,10.71,6.88,15.86,9.98c1.64,0.99,3.52,1.67,5.37,2.21c3.91,1.13,7.86,2.15,11.83,3.05
	c2.75,0.63,5.55,1.32,8.35,1.42c7.13,0.24,14.14-0.55,20.96-2.93c3.5-1.22,7.16-2.08,10.81-2.75c8.81-1.62,16.53,0.6,22.9,7.05
	c1.37,1.39,2.7,2.82,4.08,4.2c1.5,1.51,3.03,2.99,4.55,4.48c1.19,1.16,2.59,1.73,4.28,1.86c3.54,0.27,7.06,0.68,10.59,1.04
	c6.36,0.64,12.68,1.51,18.84,3.29c6.69,1.93,12.28,5.46,16.33,11.23c1.12,1.6,2.35,3.12,3.49,4.7c2.92,4.04,6.84,6.04,11.84,5.96
	c1.77-0.03,3.55,0.04,5.32,0.21c10.44,1.01,19.57,4.81,26.75,12.7c0.58,0.64,1.22,1.22,2.08,2.07c0.69-1.1,1.46-1.89,1.73-2.83
	c0.81-2.71,1.51-5.46,2.09-8.22c2.04-9.63-0.14-18.38-6.09-26.08c-2.91-3.77-6.27-7.24-9.71-10.56c-3.95-3.82-8.2-7.34-12.33-10.97
	c-0.62-0.54-1.14-1.42-2.61-0.78c-0.44,1.42-1.06,3.06-1.44,4.75c-0.7,3.11-0.18,5.98,1.97,8.47c1.16,1.34,2.22,2.77,3.32,4.16
	c2.27,2.88,3.4,6.2,3.59,9.84c0.03,0.59-0.3,1.21-0.46,1.81c-1.93-4.99-5.63-8.26-9.21-11.62c-0.9-0.85-1.76-1.76-2.65-2.62
	c-3.28-3.13-4.7-6.91-4.57-11.47c0.1-3.61,0.91-6.99,2.08-10.37c1.79-5.19,3.74-10.36,4.95-15.7c1.71-7.48-0.83-13.91-6.3-19.66
	c-2,0.96-3.9,1.86-5.79,2.77c-4.01,1.94-8.17,3.5-12.61,4.07c-1.9,0.24-3.96,0.34-5.77-0.14c-7.04-1.88-13.84-4.47-20.04-8.4
	c-0.63-0.4-1.7-0.64-1.36-1.98c4,0.7,7.99,1.44,11.99,2.09c7.85,1.27,15.18-0.36,22.02-4.27c3.11-1.78,5.81-4.03,7.48-7.42
	c-1.24-4.2-3.59-7.72-6.25-11.05c-3.01-3.77-6.48-7.08-10.44-9.82c-4.23-2.93-8.56-5.71-12.94-8.4c-1.93-1.18-3.18-2.62-3.85-4.81
	c-2.82-9.19-9.05-15.49-17.37-19.89c-6.56-3.46-13.64-4.88-21.01-5.11c-2.71-0.08-5.28,0.37-7.79,1.39
	c-2.96,1.2-5.93,2.37-8.95,3.41c-5.73,1.98-11.48,2.03-17.22-0.02c-3.34-1.19-6.72-2.28-10.06-3.48c-3.72-1.34-7.57-2.04-11.49-1.9
	c-4.42,0.16-8.87,0.45-13.25,1.05c-9.66,1.34-19.29,2.95-28.94,4.37c-3.25,0.48-6.54,0.69-10.61,1.1c5.04-4.98,11.55-5.31,16.56-8.6
	c-1-2.06-3.01-2.58-4.65-3.52c-4.18-2.39-8.23-4.91-11.47-8.54c-0.44-0.49-1.15-0.95-0.29-1.82c0.6,0.17,1.29,0.29,1.92,0.55
	c6.73,2.74,13.53,5.35,20.16,8.31c5.76,2.57,11.54,3.21,17.64,1.71c3.79-0.93,7.62-1.67,11.44-2.48c4.65-0.98,9.17-0.69,13.52,1.38
	c2.24,1.07,4.48,2.19,6.81,3c2.33,0.8,4.75,1.5,7.18,1.76c5.38,0.58,10.14-1.29,14.38-4.5c3.44-2.6,7.07-4.71,11.39-5.5
	c0.44-0.08,0.81-0.59,1.36-1.02c-1.73-6.54-5.45-11.46-11.3-14.76c-3.92-2.21-8.17-3.46-12.6-4.01c-2.83-0.35-5.56-0.93-8.27-1.86
	c-9.06-3.13-17.84-2.49-26.06,2.65c-2.22,1.39-4.47,1.98-7.03,1.86c-4.61-0.22-9.23-0.24-13.83-0.51c-5.16-0.3-9.83,0.89-14.05,3.93
	c-1.52,1.1-3.22,1.96-4.85,2.93c-0.22-0.47-0.39-0.67-0.34-0.74c5.1-8.23,12.31-13.05,22.13-13.58c1.95-0.11,3.9-0.06,5.86-0.1
	c2.31-0.05,4.55-0.37,6.7-1.76c-0.13-0.76-0.08-1.51-0.37-2.1c-1.64-3.3-4.11-6.05-7.59-7.07c-3.41-1-5.95-3.01-8.57-5.1
	c-5.18-4.12-11.09-5.65-17.5-4.1c-3.94,0.95-7.78,2.4-11.52,3.99c-1.72,0.73-3.44,2.06-4.53,3.57c-3.69,5.12-4.72,11.01-3.99,17.19
	c0.29,2.47,1.79,4.3,4.3,4.88c2.41,0.55,4.87,0.86,7.32,1.25c1.31,0.21,2.72-0.16,4.04,0.51c-0.27,1.32-1.26,1.3-2.02,1.65
	c-3.55,1.6-7.21,3.01-10.58,4.94c-4.3,2.45-6.39,6.42-6.71,11.41c-0.41,6.4,1.22,12.22,3.97,17.95c3.83,7.99,10,12.16,18.79,12.6
	c5.49,0.28,10.98,0.66,16.47,0.91c3.93,0.19,7.8,0.72,11.37,2.41c1.56,0.74,2.97,0.8,4.6,0.37c5.53-1.46,11.18-1.85,16.89-1.62
	c8.62,0.36,16.35,2.94,22.77,8.93c2.46,2.3,4.95,4.59,7.56,6.72c2.05,1.68,4.18,3.35,6.5,4.59c6.71,3.59,13.55,3.83,20.33,0.05
	c1.7-0.95,3.3-2.08,4.98-3.08c3.8-2.27,7.61-4.54,11.45-6.75c0.57-0.33,1.33-0.33,3.01-0.72c-5.55,5.26-10.26,9.82-15.49,13.8
	c-3.88,2.96-8.22,4.87-13.16,5.25c-0.44,0.03-0.86,0.32-1.65,0.62c1.81,2.87,4.3,4.45,6.99,5.76c3.72,1.82,7.72,2.56,11.79,3.08
	c3.5,0.45,7,0.91,10.5,1.37c-6.98,1.78-14,2.46-21.06,1.57c-5.24-0.66-9.83-2.97-13.62-6.7c-1.52-1.49-2.91-3.11-4.36-4.67
	c-6.59-7.06-14.13-12.93-22.54-17.65c-5.21-2.92-10.93-4.21-16.82-4.55c-9.23-0.54-15.68,3.42-19.58,11.72
	c-0.75,1.6-1.37,3.27-2.11,4.88c-0.8,1.78-1.62,3.55-2.52,5.28c-1.61,3.08-3.92,5.46-7.17,6.84c-2.45,1.04-4.93,2.01-7.32,3.16
	c-2.87,1.38-5.86,2.62-8.42,4.46c-2.37,1.71-4.78,2.27-7.5,1.93c-2.28-0.29-4.53-0.79-6.78-1.27c-2.08-0.44-4.14-0.96-6.19-1.51
	c-0.39-0.1-0.71-0.48-1.43-1c2.63-1.01,4.88-1.19,7.17-1.07c1.59,0.08,3.19,0.2,4.78,0.35c2.44,0.23,4.51-0.37,6.23-2.25
	c2.33-2.54,5.39-3.97,8.57-5.2c2.15-0.83,4.26-1.77,6.31-2.82c2.56-1.33,4.79-3.15,6.1-5.76c2.39-4.74,4.04-9.75,5.11-15.02
	c-3.73-2.56-7.76-2.96-11.87-2.75c-5.16,0.25-10.27,0.05-15.41-0.45c-9.4-0.92-15.18,2.85-18.39,11.7
	c-2.71,7.47-3.5,15.2-2.95,23.06c0.28,3.95,0.38,7.71-1.78,11.3c-0.88,1.47-1.19,3.34-1.55,5.07c-1.35,6.42-2.95,12.81-3.82,19.29
	c-1.35,10.06-1.4,20.17,0.68,30.2c2.08,10.08,6.14,19.25,12.64,27.25c5.99,7.38,13.45,11.58,23.29,9.6
	c8.34-1.68,16.67-3.47,24.95-5.43c5.77-1.37,11.19-3.84,15.47-7.95c3.74-3.6,7.79-4.76,12.88-4.75c8.68,0.02,17.38-0.47,25.99-1.82
	c5.89-0.93,11.21-3.3,16.22-6.41c1.75-1.09,3.66-2.22,4-5c-2.43-2.41-4.86-4.98-7.46-7.37c-6.23-5.73-13.32-7.77-21.61-5
	c-5.21,1.75-10.55,3.1-15.77,4.81c-3.34,1.09-6.57,1.08-9.94,0.24c-4.47-1.11-8.98-2.07-13.49-3.04
	c-6.03-1.29-12.01-1.02-17.87,0.89c-4.04,1.32-8.03,2.82-12.03,4.27c-3,1.09-5.94,2.35-8.98,3.32c-4.56,1.46-9.24,2.34-14.16,2.45
	c0.25-0.48,0.33-0.89,0.57-1.03c5.44-3.33,10.92-6.61,16.35-9.96c3.94-2.43,7.98-4.62,12.44-5.96c0.45-0.13,0.83-0.49,1.52-0.92
	c-0.94-1.93-2.44-3.16-4.05-4.17c-2.4-1.51-4.86-2.94-7.37-4.26c-5.94-3.12-10.81-7.46-14.61-12.93c-2.32-3.34-4.27-6.94-6.35-10.45
	c-0.31-0.53-0.42-1.19-0.89-2.61c7.2,5.59,12.66,12.09,20.84,14.94c0.53-2.98,0.91-5.61,1.48-8.19
	C591.84,476.39,596.03,468.17,600.08,463.62z M715.6,555.81c0,0,0.1-0.05,0.1-0.05c-0.29,0.43-0.7,0.82-0.86,1.29
	c-2.43,7.59-5.07,15.13-7.16,22.82c-2.38,8.76-3.47,17.75-3.12,26.86c0.05,1.35,0.35,2.69,0.56,4.25c3.24-0.27,5.72-1.66,8.27-2.77
	c2.44-1.06,4.8-2.3,7.21-3.41c2.58-1.19,5.15-2.39,7.77-3.46c2.54-1.03,4.97-2.45,7.86-2.61c-1.1,1.23-2.39,2.11-3.63,3.04
	c-5.54,4.14-11.07,8.29-16.59,12.45c-1.84,1.39-3.62,2.86-5.44,4.27c-8.45,6.54-17.83,10.06-28.69,9.14
	c-4.24-0.36-8.51-0.33-12.76-0.53c-8.2-0.38-15.38,2.22-21.56,7.53c-3.09,2.66-6.03,5.5-9.04,8.24c-3.28,2.99-6.48,6.06-9.87,8.91
	c-4.27,3.59-9.18,6.11-14.68,7.16c-5.04,0.97-10.13,1.96-15.24,2.24c-9.21,0.5-18.03-1.13-25.84-6.51
	c-0.53-0.37-1.25-0.47-1.97-0.74c-7.56,7.11-11.7,15.66-12.47,25.83c-0.54,7.15,0.33,14.18,2.33,21.04c0.72,2.46,0.83,4.8,0.45,7.32
	c-1.7,11.07-2.33,22.21-1.8,33.42c0.26,5.34,1.06,10.59,2.44,15.74c2.33,8.73,6.46,16.43,12.98,22.85c2.4,2.37,4.93,3.27,8.13,2.7
	c0.87-0.16,1.75-0.28,2.62-0.43c6.41-1.13,12.13-3.84,17.44-7.53c4.54-3.16,8.68-6.79,12.3-10.94c2-2.29,4.35-3.49,7.19-4.08
	c5.55-1.16,11.11-2.32,16.65-3.54c7.11-1.56,14.16-3.32,20.86-6.23c9.68-4.2,15.42-11.62,17.77-21.78
	c1.93-8.37,1.11-16.56-1.63-24.62c-0.32-0.95-0.94-1.8-1.3-2.49c-5.27,0.44-10.2,0.93-15.13,1.22c-3.01,0.18-6.03,0.09-9.05,0.03
	c-9.59-0.17-18.16,2.7-25.75,8.52c-3.24,2.48-6.42,5.04-9.7,7.47c-3.73,2.77-6.96,6.02-9.91,9.6c-2.14,2.6-4.33,5.17-6.65,7.61
	c-3.5,3.67-7.71,6.21-12.72,7.32c-2.6,0.57-5.16,1.27-7.75,1.87c-0.82,0.19-1.67,0.26-2.51,0.38c2.65-2.05,5.47-3.51,8.36-4.8
	c3.97-1.78,7.43-4.25,10.03-7.69c3.41-4.52,6.59-9.23,9.84-13.88c0.16-0.23,0.02-0.66,0.02-1.34c-5.62-1.16-11.33-2.4-15.92-6.32
	c-4.65-3.97-6.84-9.22-8.3-15.45c2.25,1.25,3.24,2.97,4.44,4.45c3.45,4.27,7.81,7.24,12.98,8.91c3.19,1.03,6.53,1.6,9.81,2.37
	c3.04,0.71,5.49-0.14,7.6-2.49c2.01-2.24,4.28-4.24,6.41-6.38c6.07-6.1,13.45-9.05,22.02-9.08c3.37-0.01,6.74,0.07,10.11,0.08
	c3.37,0.01,6.74,0.07,10.11-0.03c7.8-0.22,14.02-3.44,18.35-10.03c2.05-3.11,3.92-6.34,6.05-9.39c1.92-2.76,3.92-5.49,6.17-7.97
	c2.85-3.14,6.51-4.9,10.86-4.82c7.09,0.14,14.19,0.16,21.26,0.61c7.07,0.45,14.12,1.36,21.17,2.11c9.13,0.97,18.05,0.04,26.77-2.86
	c1.3-0.43,2.72-0.47,4.09-0.69l-0.1-0.13c0.21,1.12-0.68,1.55-1.36,2.02c-2.9,2.04-5.85,4.01-8.74,6.06
	c-0.79,0.56-1.42,1.34-2.31,2.2c3.5,2.18,6.94,3.58,10.49,4.72c4.24,1.36,8.57,2.32,13.07,2.02c6.35-0.42,11.69-2.76,15.3-8.27
	c1.58-2.42,2.44-5.12,3.01-7.91c0.16-0.77-0.04-1.62-0.07-2.52c-10.24,3.27-19.12,3.51-23.26,0.58c1.17-0.6,2.24-1.21,3.35-1.71
	c7-3.13,12.5-8.04,16.81-14.3c5.58-8.11,8.51-17.16,8.83-26.94c0.6-17.8-5.99-32.96-17.86-45.88c-6.31-6.87-14.51-9.97-23.86-9.92
	c-0.82,0-1.81-0.16-2.31,1.22c0.9,1.5,1.91,3.14,2.87,4.8c4.68,8.09,6.73,16.74,5.32,26.06c-0.53,3.5-1.19,6.99-1.95,10.45
	c-0.95,4.33-2.24,8.59-3.05,12.94c-0.75,3.99-1.13,8.06-1.53,12.11c-0.3,2.98,0.75,5.58,2.79,7.77c0.72,0.78,1.44,1.58,2.23,2.28
	c3.5,3.07,6.21,6.81,8.92,10.54c0.39,0.54,0.92,1.13-0.06,2.03c-5.07-4.68-11.04-8.13-17.02-11.6c-3.41-1.97-5.13-5.08-5.79-9.06
	c-1.24-7.5-0.55-14.88,0.82-22.22c1.17-6.27,2.72-12.47,4.15-18.69c1.02-4.42,0.89-8.78-0.33-13.15c-1.46-5.24-4.2-9.74-7.66-13.86
	c-2.05-2.44-4.1-4.89-6.11-7.36c-5.31-6.54-11.52-12.05-18.89-16.17c-7.87-4.39-16.23-7.01-25.31-7.27
	c-2.67-0.08-4.65,0.59-6.57,2.59c-8.11,8.43-18.11,13.46-29.49,16c-7.51,1.68-15.1,2.28-22.73,2.01c-4.09-0.15-7.51,0.77-10.93,3.05
	c-6.95,4.64-14.46,8.28-22.34,11.11c-12.94,4.64-26.15,6.33-39.77,3.72c-1.18-0.23-2.38-0.35-3.66-0.53
	c-9.37,13.56-11.9,27.7-5.51,42.98c2.69,6.44,6.49,12.23,11.08,17.45c3.28,3.72,6.86,7.18,10.27,10.79c0.65,0.69,1.8,1.13,1.47,2.66
	c-6.32-1.97-11.97-5.1-17.44-9.07c-0.07,0.79-0.3,1.36-0.14,1.79c4.24,11.63,13.28,17.92,25.97,16.61
	c10.66-1.09,20.26-5.07,28.28-12.39c3.27-2.99,6.34-6.21,9.65-9.16c3.31-2.94,6.68-5.84,10.26-8.44c5.09-3.69,10.81-5.21,17.12-3.95
	c2.08,0.42,4.2,0.7,6.31,0.95c2.11,0.26,4.23,0.44,6.35,0.58c3.98,0.28,7.33-1.18,10.03-4.02c1.45-1.53,2.87-3.18,3.92-5
	c3.59-6.22,5.01-13.14,6.42-20.4c-4.85-1.82-9.27-4.03-14.07-5.32c-2.8-0.75-5.6-0.73-8.41-0.02c-3.99,1.01-7.72,2.62-11.27,4.66
	c-3.84,2.21-7.58,4.62-11.48,6.73c-3.58,1.94-7.27,3.68-10.98,5.35c-4.94,2.22-9.97,2.13-15.02,0.25c-2.49-0.93-5.03-1.72-7.55-2.58
	c-3.52-1.21-7.01-1.04-10.38,0.47c-2.91,1.3-5.81,2.65-8.55,4.26c-4.46,2.61-8.41,5.92-12.12,9.5c-0.86,0.83-1.77,1.62-2.87,2.62
	c-0.87-0.93-1.53-1.63-2.17-2.31c4.54-6.87,10.16-12.24,16.39-17.03c1.34-1.03,3.19-1.62,3.79-3.71c-4.19-3.66-9.75-4.62-15.14-7.16
	c1.03-0.4,1.44-0.69,1.87-0.71c6.07-0.33,12.05,0.08,17.87,2.01c3.36,1.12,6.72,2.27,10.13,3.25c4.59,1.32,9.21,2.59,13.86,3.71
	c7.77,1.87,14.76,0.03,21.01-4.82c2.8-2.17,5.67-4.27,8.38-6.56c9.39-7.93,19.53-9.41,30.66-3.96c2.51,1.23,5.2,2.09,8.05,3.21
	c0.81-1.46,1.58-2.62,2.14-3.87c3.16-7.16,7.09-13.9,11.27-20.5c0.57-0.9,1.16-1.8,1.89-2.55
	C714.37,555.46,715.11,555.75,715.6,555.81z M722.64,858.4c11.55-1.4,20.39-6.08,26.91-14.7c2.33-3.08,4.29-6.53,5.92-10.04
	c1.31-2.82,2.82-5.09,5.51-6.84c2.48-1.61,4.69-3.81,6.62-6.08c5.2-6.11,7.77-13.43,9.09-21.24c0.08-0.45-0.24-0.97-0.38-1.46
	c-8.61,2.24-10.36,2.55-16.29,2.01c-2.99-0.27-5.99-0.76-8.91-1.44c-1.85-0.43-3.39-0.36-5.04,0.62
	c-8.06,4.78-16.88,7.34-26.13,8.39c-7.04,0.8-14.11,1.48-21.19,1.88c-3.7,0.21-6.47,1.65-8.6,4.49c-1.28,1.7-2.4,3.51-3.6,5.27
	c-2.11,3.06-4.18,6.15-6.38,9.15c-0.77,1.05-1.31,2.05-1.29,3.37c0.02,1.24-0.02,2.48-0.1,3.72c-1.05,16.03-6.77,29.61-20.48,39.01
	c-0.49,0.34-0.81,0.92-1.62,1.87c3.59,0.57,6.56,0.41,9.52,0.44c5.89,0.06,11.68-0.73,17.35-2.31
	c12.86-3.59,22.27-11.38,28.15-23.37c3.63-7.4,5.57-15.3,6.58-23.44c0.24-1.94,0.45-3.88,0.67-5.81c0.2-1.86,0.39-3.73,0.72-6.82
	c0.79,1.68,1.18,2.24,1.33,2.86c1.65,6.89,3.61,13.71,3.99,20.86C725.31,845.21,724.52,851.48,722.64,858.4z"/>
<path d="M892.13,782.36c0-0.97-0.04-2.02,0.01-3.06c1.02-21.27,2.09-42.54,3.06-63.81c0.96-20.92,1.83-41.85,2.72-62.77
	c0.42-9.93,0.81-19.86,1.16-29.79c0.89-25.19,1.76-50.37,2.6-75.56c0.41-12.24,0.92-24.48,1.06-36.72
	c0.14-12.24,0.09-24.49-0.32-36.73c-0.2-5.82-1.2-11.64-2.27-17.38c-0.98-5.24-3.02-10.19-5.47-14.95c-0.64-1.23-1.19-2.5-1.94-4.08
	c12.47-7.83,24.83-15.39,37.43-23.21c0.87,1.28,1.63,2.21,2.19,3.24c4.78,8.82,7.93,18.24,9.54,28.09
	c1.66,10.15,2.9,20.37,4.24,30.56c0.53,4.04,0.8,8.12,1.28,12.17c0.23,1.92,0.7,3.8,1.11,5.97c1.84,0.35,3.54,0.83,5.26,0.96
	c3.33,0.25,6.05,1.65,8.65,3.68c11.57,9.06,21.31,19.78,29.43,32c11.93,17.95,19.76,37.64,24.53,58.58
	c3.96,17.38,5.78,35.01,5.22,52.83c-0.94,30.19-7.3,59.09-21.3,86.05c-9.36,18.02-21.73,33.6-37.62,46.39
	c-5.84,4.7-12.35,7.64-19.58,9.09c-14.58,2.92-29.26,3.13-43.96,1.05C896.76,784.63,894.23,784.34,892.13,782.36z"/>
<path d="M186.97,437.75c-0.26,0.79-0.34,1.33-0.59,1.77c-6.3,11.09-8.58,23.24-9.03,35.77c-0.65,18.1-0.4,36.2,0.23,54.3
	c0.45,12.95,0.97,25.89,1.42,38.84c0.52,14.72,0.94,29.44,1.51,44.16c0.85,21.99,1.8,43.97,2.71,65.96
	c0.41,9.93,0.81,19.86,1.24,29.79c0.84,19.68,1.67,39.36,2.56,59.04c0.22,4.95,0.61,9.89,0.92,14.79c-2.03,2.19-4.59,2.39-6.96,2.77
	c-10.57,1.73-21.22,1.76-31.85,0.78c-5.1-0.47-10.16-1.55-15.19-2.58c-6.01-1.23-11.27-4.06-16.1-7.87
	c-17.03-13.44-29.94-30.17-39.57-49.48c-8.7-17.44-14.25-35.88-17.29-55.11c-2.7-17.09-3.42-34.24-1.95-51.47
	c2.43-28.65,9.87-55.82,24.45-80.81c8.77-15.02,19.79-28.11,33.45-38.95c3.03-2.4,6.18-4.05,10.09-4.25
	c1.38-0.07,2.74-0.54,4.36-0.89c0.35-1.6,0.82-3.12,1-4.67c1.14-9.69,2.15-19.4,3.32-29.08c1.24-10.22,2.83-20.4,6.37-30.13
	c1.63-4.49,3.75-8.8,5.71-13.16c0.42-0.93,1.13-1.73,1.68-2.56C153.4,416.38,181.97,433.91,186.97,437.75z"/>
<path d="M199.7,781.58c-0.85-1.88-0.91-4-1.02-6.1c-0.83-15.95-1.66-31.9-2.43-47.85c-0.94-19.32-1.84-38.64-2.73-57.97
	c-0.42-9.04-0.81-18.08-1.17-27.13c-0.88-21.99-1.72-43.98-2.62-65.97c-0.98-24.12-2-48.23-2.98-72.35
	c-0.08-1.93-0.01-3.86-0.01-5.87c1.85-1.19,3.75-1.58,5.67-1.73c6.92-0.53,13.86-0.74,20.65,0.99c2.9,0.74,5.78,1.77,8.46,3.08
	c5.15,2.52,8.09,6.75,8.68,12.53c0.34,3.35,0.77,6.7,1.08,10.05c1.57,16.96,3.26,33.91,4.62,50.89c1.76,21.93,3.53,43.87,4.8,65.83
	c1.56,26.93,2.77,53.89,2.21,80.88c-0.27,13.12-0.68,26.26-2.81,39.26c-0.14,0.88-0.23,1.76-0.41,2.63
	c-1.74,8.44-6.68,13.84-15.08,16.12C218.2,780.63,205.6,782.16,199.7,781.58z"/>
<path d="M893.1,497.9c0.09,1.28,0.24,2.15,0.21,3.01c-3.85,93.1-6.96,186.23-12.48,279.25c-0.03,0.49-0.39,0.96-0.58,1.39
	c-0.41,0.15-0.74,0.39-1.07,0.38c-8-0.24-15.93-0.99-23.7-3.03c-8.4-2.2-13.51-7.49-15.09-16.04c-0.68-3.66-1.28-7.35-1.64-11.05
	c-1.65-16.98-1.99-34.02-1.63-51.06c0.36-17.21,0.88-34.42,1.67-51.62c0.65-14.18,1.74-28.34,2.72-42.5
	c0.77-11.15,1.57-22.31,2.53-33.44c1.16-13.43,2.49-26.85,3.76-40.28c0.47-4.95,0.98-9.89,1.49-14.83c0.18-1.76,0.46-3.52,0.63-5.28
	c0.54-5.88,3.86-9.73,8.9-12.37c3.5-1.84,7.27-2.83,11.14-3.45c6.17-0.99,12.38-0.88,18.58-0.23
	C889.92,496.9,891.27,497.43,893.1,497.9z"/>
<path d="M672.84,213.83c1.95,14.48,2.84,29.3,5.07,45.12c3.53-7.04,5.51-13.45,8.02-19.64c2.46-6.06,4.75-12.19,7.08-18.2
	c3.7,0.35,10.62,2.89,15.47,5.6c-0.62,3.64-12.79,35.47-15.63,40.76c-0.93-0.24-1.97-0.38-2.89-0.77
	c-4.54-1.94-9.48-2.96-13.59-5.93c-0.82-0.59-2-0.68-3.02-0.97c-4.25-1.24-8.49-2.48-12.9-3.76c-0.47-1.35-0.92-2.65-1.51-4.36
	c-5.21-1.95-10.86-3.3-16.55-4.82c-1.16,0.94-2.24,1.82-3.47,2.82c-5.36-0.88-10.46-3.05-15.82-4.1
	c-5.38-1.05-10.85-1.65-16.03-2.41c-1.17-1.79-0.72-3.41-0.69-4.97c0.05-2.3,0.3-4.61,0.22-6.91c-0.09-2.77-0.88-3.74-3.67-4.45
	c-3.93-1-7.96-1.42-12.28-1.8c-1.83,4.84-1.23,9.97-2.95,14.97c-2.66,0.47-5.41-0.25-8.16-0.6c-2.61-0.33-5.2-0.83-7.89-1.27
	c-0.09-0.95-0.3-1.65-0.2-2.31c2.03-13.65,3.68-27.36,5.89-41.01c2.79-0.84,5.2,0.14,7.58,0.44c9.85,1.26,19.67,2.73,29.5,4.18
	c1.92,0.28,3.85,0.68,5.71,1.26c4.97,1.54,7.66,5,7.83,10.18c0.06,1.93-0.08,3.93-0.56,5.79c-0.87,3.4-2.63,6.2-6.36,7.19
	c-0.43,0.11-0.81,0.42-1.33,0.7c0.45,0.53,0.72,1.03,1.13,1.31c2.32,1.56,3.02,3.85,2.95,6.46c-0.07,2.48-0.25,4.96-0.33,7.44
	c-0.02,0.64,0.11,1.28,0.23,2.52c2.39-1.88,3.59-4.03,5.1-5.9c1.45-1.79,2.83-3.64,4.24-5.47c1.52-1.97,3.04-3.93,4.56-5.9
	c1.52-1.97,3.04-3.93,4.56-5.9c1.41-1.83,2.81-3.66,4.23-5.48c1.51-1.95,3.04-3.9,4.44-5.71
	C654.86,208.06,666.64,211.22,672.84,213.83z M591.85,215.12c4.54,1.4,9.14,1.61,13.67,2.1c1.72,0.19,3.03-0.85,3.73-2.47
	c1.16-2.68,0.14-5.06-2.8-5.72c-3.45-0.77-6.98-1.19-10.48-1.69c-0.98-0.14-1.99-0.02-3.09-0.02
	C592.38,210.02,591.71,212.36,591.85,215.12z M657.67,224.38c-3.47,3.6-6.48,7.38-9.14,11.78c3.31,1.55,6.47,2.68,10.44,2.78
	C658.73,233.95,658.63,229.3,657.67,224.38z"/>
<path d="M511.44,237.8c-0.63-14.55-0.84-28.85-0.8-43.45c1.29-0.19,2.29-0.45,3.29-0.47c11.16-0.26,22.32-0.56,33.49-0.69
	c2.99-0.04,6.04,0.18,8.98,0.72c9.03,1.67,12.13,10.42,6.4,17.69c-0.22,0.28-0.41,0.58-0.75,1.06c0.45,0.42,0.89,0.91,1.41,1.3
	c5.82,4.42,7.09,12.48,2.9,18.39c-1.5,2.12-3.57,3.51-6.03,4.08c-2.4,0.56-4.88,1.04-7.34,1.1c-13.11,0.32-26.22,0.51-39.33,0.72
	C513.14,238.27,512.63,238.06,511.44,237.8z M528.26,227.05c6.51,0.02,12.46,0,18.4-0.24c0.52-0.02,1.04-0.18,1.54-0.34
	c1.29-0.41,2.04-1.45,2.05-2.74c0.01-1.29-0.78-2.36-2.05-2.71c-0.5-0.14-1.03-0.27-1.55-0.26c-5.8,0.09-11.59,0.2-17.39,0.34
	c-0.28,0.01-0.55,0.39-1,0.73C528.26,223.23,528.26,224.75,528.26,227.05z M527.98,209.32c0.6,0.21,1.24,0.62,1.88,0.62
	c4.42,0.01,8.84-0.04,13.25-0.15c0.86-0.02,1.75-0.24,2.56-0.54c1.07-0.4,1.71-1.27,1.7-2.43c-0.01-1.21-0.76-1.94-1.88-2.22
	c-0.85-0.21-1.74-0.38-2.61-0.38c-3.36,0-6.71,0.04-10.07,0.14c-1.55,0.04-3.09,0.24-4.84,0.39
	C527.98,206.41,527.98,207.77,527.98,209.32z"/>
<path d="M188.46,412.78c1.49-2.01,2.71-3.71,3.99-5.38c2.71-3.51,5.46-6.99,8.16-10.51c1.1-1.44,2.34-2.35,4.23-2.85
	c3.9-1.03,6.08-4.1,7.34-7.76c0.23-0.66-0.13-1.89-0.65-2.33c-0.53-0.44-1.79-0.55-2.4-0.21c-1.21,0.67-2.28,1.66-3.27,2.66
	c-2.38,2.39-4.58,4.96-7.04,7.26c-2.97,2.78-6.02,5.51-9.23,8c-4.3,3.33-8.96,4.14-13.81,1c-4.65-3.02-6.63-7.96-5.24-13.92
	c0.64-2.73,1.58-5.47,2.86-7.97c3.58-7,8.36-13.17,14.09-18.56c2.47-2.32,5.19-4.28,8.37-5.57c3.62-1.46,7.24-1.55,10.88-0.16
	c0.32,0.12,0.6,0.37,0.87,0.6c0.11,0.1,0.16,0.28,0.39,0.74c-0.47,0.71-0.97,1.62-1.6,2.43c-2.92,3.79-5.91,7.54-8.81,11.35
	c-1.32,1.73-2.67,2.8-5.1,3.2c-4.01,0.65-6.21,3.84-7.26,7.63c-0.18,0.63,0.4,1.7,0.94,2.23c0.35,0.34,1.45,0.35,1.93,0.04
	c1.33-0.85,2.61-1.83,3.74-2.94c3.41-3.37,6.64-6.91,10.12-10.2c2.18-2.06,4.52-4.02,7.06-5.6c4.44-2.77,9.07-2.84,13.48,0.24
	c4.49,3.14,6.51,7.51,5.51,12.9c-0.51,2.75-1.47,5.5-2.72,8.02c-4.22,8.51-10.04,15.86-17.05,22.26c-2.37,2.17-5.06,3.87-8.09,5.03
	C196.22,415.91,192.53,415.68,188.46,412.78z"/>
<path d="M766.8,254.24c-6.72,13.26-13.19,26.03-19.81,39.09c-5.98-2.13-11.06-5.31-16.71-8.03c-2.43-9.64-5.02-19.34-6.6-30.04
	c-1.64,1.98-1.96,3.86-2.79,5.44c-0.91,1.73-1.75,3.48-2.63,5.23c-0.8,1.58-1.58,3.18-2.4,4.75c-0.89,1.72-1.82,3.41-2.71,5.06
	c-3.57-0.68-9.82-3.68-15.1-7.25c2.84-6.57,6.39-12.87,9.6-19.34c3.22-6.49,6.56-12.93,9.81-19.32c3.73,0.85,12.16,4.93,17.56,8.47
	c2.02,9.94,5.2,19.86,6.05,31.45c2.65-8.36,6.31-15.01,9.82-21.73c0.23-0.44,0.69-0.76,1.24-1.35
	C756.93,248.88,761.66,251.18,766.8,254.24z"/>
<path d="M854.39,365.29c1.11,1.28,1.95,2.16,2.71,3.11c2.98,3.74,5.92,7.52,8.91,11.25c1.56,1.95,2.62,3.87,2.74,6.62
	c0.16,3.72,2.66,6.48,5.81,8.42c0.59,0.37,1.76,0.28,2.43-0.06c1.08-0.56,1.18-1.77,0.69-2.8c-0.77-1.59-1.66-3.12-2.58-4.64
	c-2.38-3.94-4.94-7.79-7.17-11.81c-1.45-2.62-2.79-5.39-3.6-8.26c-2.59-9.25,5.41-17.23,14.67-14.62c2.5,0.71,5.02,1.9,7.1,3.45
	c8.42,6.23,14.77,14.25,19.2,23.71c1.1,2.36,1.69,5.06,1.98,7.67c0.43,3.81-0.69,7.27-3.43,10.11c-3.2-2.49-8.41-8.79-13.7-16.53
	c1.36-4.37-0.68-7.72-3.89-10.59c-0.63-0.57-1.5-0.94-2.33-1.22c-1.08-0.37-2.71,1.16-2.31,2.22c0.61,1.65,1.32,3.29,2.21,4.8
	c2.45,4.11,5.15,8.07,7.48,12.24c1.54,2.76,2.85,5.71,3.83,8.71c2.19,6.78-1.8,12.5-7.75,14.92c-3.26,1.33-6.68,1.18-9.81-0.39
	c-2.51-1.26-5.02-2.71-7.14-4.52c-7.21-6.17-12.98-13.55-17.46-21.91c-1.6-2.99-2.73-6.14-2.89-9.59
	C849.87,371.07,850.49,369.45,854.39,365.29z"/>
<path d="M763.71,304.78c9.27-12.17,17.97-23.58,26.43-34.69c1.72-0.46,2.43,0.5,3.22,1.1c7.5,5.67,15.01,11.33,22.42,17.11
	c2.51,1.96,4.93,4.09,7.08,6.43c5.3,5.79,6.41,12.49,3.5,19.75c-2.15,5.38-5.59,9.89-10.22,13.37c-5.77,4.34-12,5.02-18.46,1.56
	c-2.18-1.17-4.32-2.47-6.3-3.95c-8.52-6.38-16.98-12.84-25.47-19.27C765.36,305.77,764.73,305.43,763.71,304.78z M784.6,305.64
	c3.83,3.64,7.72,6.62,12.08,8.97c2.4,1.29,4.82,1.02,7.06-0.41c3.42-2.18,5.72-5.28,6.88-9.14c0.82-2.74,0.24-5.33-1.84-7.35
	c-3.4-3.31-7.17-6.17-11.46-8.83C792.97,294.5,788.78,299.91,784.6,305.64z"/>
<path d="M411.57,224.27c0.37,1.39,0.67,2.52,1.04,3.93c1.35-0.17,2.57-0.18,3.71-0.5c6.32-1.77,12.61-3.63,18.92-5.44
	c1.01-0.29,2.06-0.47,3.28-0.74c2.19,3,2.49,6.54,3.45,10.2c-1.37,0.56-2.6,1.19-3.9,1.57c-6.29,1.86-12.61,3.63-18.91,5.47
	c-0.99,0.29-1.93,0.76-3.15,1.25c0.42,1.5,0.79,2.81,1.17,4.15c0.65,0.09,1.19,0.33,1.65,0.21c3.43-0.9,6.85-1.83,10.26-2.81
	c6.31-1.8,12.61-3.64,18.91-5.46c0.83-0.24,1.68-0.4,2.76-0.65c2.12,3.11,2.14,6.74,3.6,10.08c-1.08,0.56-1.8,1.09-2.61,1.33
	c-14.98,4.35-29.98,8.68-44.98,12.98c-0.66,0.19-1.38,0.19-2.32,0.32c-0.41-0.77-0.95-1.48-1.18-2.28
	c-3.62-12.43-7.2-24.87-10.76-37.31c-0.19-0.66-0.18-1.38-0.3-2.35c0.96-0.43,1.84-0.97,2.8-1.25c13.96-4.07,27.93-8.11,41.9-12.13
	c0.84-0.24,1.74-0.27,2.79-0.43c1.79,3.15,2.61,6.51,3.07,10.36C432.57,218.44,421.97,220.58,411.57,224.27z"/>
<path d="M450.47,201.89c2.16-0.41,4.38-0.9,6.63-1.24c9.65-1.43,19.29-2.86,28.96-4.17c2.62-0.35,5.31-0.39,7.96-0.36
	c3.24,0.03,5.82,1.6,7.64,4.19c2.83,4.03,3.23,8.56,2.1,13.23c-0.57,2.38-2.48,3.81-4.34,5.02c-0.16,1.19,0.76,1.17,1.28,1.36
	c2.56,0.96,4.02,2.84,4.63,5.42c0.97,4.09,1.89,8.2,2.89,12.54c-5.41,1.38-10.7,1.73-16.27,2.6c-0.49-1.02-1.16-2.04-1.46-3.15
	c-0.68-2.57-1.03-5.23-1.79-7.76c-0.9-2.99-2.01-3.74-5.04-3.68c-4.07,0.08-8.04,0.97-12.21,1.76c-0.4,5.14,1.46,9.9,1.45,14.75
	c-3.23,1.64-10.51,2.83-15.97,2.65C455.52,241.15,450.49,207.77,450.47,201.89z M469.44,217.77c5.23-0.05,9.73-0.83,14.16-1.89
	c2.25-0.54,3.1-2.55,2.63-5.05c-0.36-1.91-1.53-2.88-3.77-2.96c-1.23-0.04-2.47,0.05-3.69,0.2c-2.45,0.31-4.89,0.64-7.32,1.08
	c-0.96,0.18-1.86,0.68-2.91,1.08C468.84,212.78,469.11,215.01,469.44,217.77z"/>
<path d="M258.39,313.48c-4.66,4.7-9.07,8.99-13.35,13.06c-0.73-0.06-1.11,0-1.42-0.13c-3.18-1.38-6.21-1.24-9.04,0.87
	c-3.34,2.5-6.26,5.4-6.78,9.75c-0.2,1.66,0.25,3.54,0.88,5.13c0.57,1.43,1.64,2.74,2.72,3.89c8.44,8.98,17.08,3.63,20.83-3.4
	c0.62-1.17,0.68-2.72,0.72-4.11c0.04-1.22-0.3-2.45-0.49-3.83c1.9-2.51,4.39-4.52,6.62-6.77c2.11-2.12,4.29-4.18,6.51-6.33
	c1.7,0.66,2.33,1.95,2.92,3.16c0.61,1.26,1.13,2.61,1.43,3.97c0.67,3.02,0.38,6.06-0.73,8.89c-1.09,2.78-2.3,5.61-4,8.05
	c-4.6,6.59-10.32,12.14-16.91,16.76c-4.17,2.92-8.78,4.54-13.93,4.52c-3.06-0.01-6.01-0.52-8.74-1.93
	c-5.54-2.84-9.74-7.03-12.43-12.67c-1.89-3.97-2.37-8.08-1.25-12.41c0.9-3.48,2.29-6.71,4.34-9.63
	c4.95-7.05,11.03-12.95,18.39-17.44c2.24-1.37,4.74-2.43,7.26-3.19C247.76,307.92,253.13,308.78,258.39,313.48z"/>
<path d="M280.45,276.48c6.63,3.41,36.88,22.17,40.22,24.97c-4.58,3.72-9.33,7.08-14.12,10.61c-1.34-0.5-2.65-0.99-4.21-1.57
	c-4.84,2.96-9.26,6.77-14.15,10.19c0.16,1.49,0.3,2.85,0.49,4.64c-4.3,3.33-8.74,6.73-13.43,9.92c-2.24-4.3-8.93-28.5-12.54-45.09
	C265.08,287.32,273.88,280.52,280.45,276.48z M283.91,309.62c3.02-2.26,5.66-4.23,8.57-6.41c-4.14-3.44-8.24-6.1-13.39-9.08
	C280.54,299.79,281.62,304.62,283.91,309.62z"/>
<path d="M821.79,325.62c3.94,4.15,7.47,7.87,11.33,11.94c-0.51,0.87-1.29,2.19-2.06,3.52c-1.22,2.08-0.98,4.08,0.46,5.94
	c0.65,0.83,1.38,1.63,2.18,2.31c2.22,1.88,4.38,2.14,6.81,0.47c2.03-1.39,3.89-3.07,5.66-4.8c4.05-3.97,8.01-8.03,11.96-12.1
	c1.11-1.14,2.07-2.43,2.98-3.51c3.52,1.9,7.59,5.7,12.61,11.59c-0.58,0.74-1.14,1.61-1.84,2.32c-5.46,5.57-10.94,11.12-16.45,16.64
	c-1.37,1.38-2.82,2.69-4.34,3.91c-4.11,3.3-8.69,3.77-13.51,1.9c-1.8-0.7-3.59-1.57-5.18-2.66c-5.92-4.06-10.89-9.1-14.58-15.26
	c-1.25-2.09-2.07-4.48-2.86-6.82c-1.17-3.44-0.31-6.67,1.59-9.62C817.88,329.31,819.48,327.44,821.79,325.62z"/>
<path d="M335.72,242.09c2.26,2.89,3.72,5.9,5.54,9.05c-0.76,0.69-1.42,1.48-2.25,1.99c-2.87,1.75-5.81,3.38-8.7,5.11
	c-1.03,0.62-1.98,1.39-3.25,2.29c2.76,4.76,5.39,9.33,8.05,13.89c2.67,4.59,5.35,9.16,8,13.71c-2.43,2.6-6.72,5.29-14.12,8.86
	c-0.67-0.9-1.46-1.78-2.06-2.79c-4.05-6.86-8.05-13.74-12.08-20.6c-0.8-1.35-1.67-2.66-2.66-4.23c-5.18,1.79-9.22,5.37-14.28,7.59
	c-2.74-2.45-3.98-5.89-5.71-8.97C295.7,265.03,324.48,247.93,335.72,242.09z"/>
<path d="M385.92,220c1.91,3.15,3.05,6.28,4.39,9.65c-0.89,0.59-1.67,1.27-2.57,1.68c-4.02,1.82-8.07,3.57-12.45,5.49
	c0.42,1.33,0.68,2.49,1.14,3.56c3,7.01,6.04,13.99,9.06,20.99c0.77,1.78,1.48,3.59,2.35,5.7c-4.96,2.66-9.99,4.67-15.26,6.65
	c-2.82-4.94-4.57-10.15-6.87-15.11c-2.21-4.79-3.88-9.84-6.71-14.73c-5.07,2.11-9.93,4.14-14.91,6.21
	c-2.25-3.11-3.11-6.52-4.54-9.62C343.11,238,375.4,223.76,385.92,220z"/>
<path d="M777.94,660.55c0.14-0.25,0.28-0.5,0.42-0.74c0.12,0.2,0.24,0.39,0.36,0.59c-0.29,0.01-0.59,0.02-0.88,0.03
	C777.84,660.42,777.94,660.55,777.94,660.55z"/>
<path d="M715.6,555.81c-0.04-0.23-0.07-0.46-0.11-0.68c-0.04,0.11-0.15,0.25-0.12,0.33c0.05,0.12,0.19,0.2,0.31,0.3
	C715.7,555.76,715.6,555.81,715.6,555.81z"/>
<path d="M600.08,463.62c0.1-0.27,0.19-0.54,0.29-0.81c-0.14,0.23-0.28,0.45-0.42,0.68C599.95,463.49,600.08,463.62,600.08,463.62z"
	/>
<path d="M591.3,812.58c-0.01,0.28-0.01,0.56-0.02,0.84c-0.2-0.08-0.4-0.15-0.6-0.23c0.26-0.16,0.51-0.32,0.76-0.48
	C591.44,812.7,591.3,812.58,591.3,812.58z"/>
<path d="M599.6,856.93c0.25-0.11,0.5-0.21,0.74-0.32c-0.07,0.08-0.13,0.22-0.2,0.23c-0.14,0.02-0.28-0.04-0.44-0.04
	C599.69,856.82,599.6,856.93,599.6,856.93z"/>
</svg>
